<svg width="46" height="46" viewBox="0 0 46 46" fill="none" xmlns="http://www.w3.org/2000/svg">
<path d="M0.418214 23C0.418214 10.5278 10.5278 0.418214 23 0.418214C35.4708 0.418214 45.5818 10.5278 45.5818 23C45.5818 35.4708 35.4708 45.5818 23 45.5818C10.5278 45.5818 0.418214 35.4708 0.418214 23ZM2.45683 23C2.45683 34.3285 11.6715 43.5432 23 43.5432C34.3285 43.5432 43.5432 34.3285 43.5432 23C43.5432 11.6727 34.3297 2.41226 23 2.41226C11.6703 2.41226 2.45683 11.6727 2.45683 23Z" fill="white" stroke="black" stroke-width="0.836429"/>
<path d="M18.1133 12.1838L18.1133 12.1838C18.5099 11.7832 19.1526 11.7825 19.5514 12.1837C19.5515 12.1839 19.5517 12.1841 19.5519 12.1842L29.4681 22.2456L29.4688 22.2462C29.8547 22.6361 29.8544 23.3212 29.4684 23.7124L29.4682 23.7125L19.55 33.773C19.1533 34.1738 18.5104 34.1744 18.1116 33.7728C17.7109 33.3677 17.7115 32.7107 18.1115 32.3076L18.1124 32.3066L27.0192 23.272L27.3086 22.9784L27.0192 22.6848L18.1139 13.6502L18.1133 13.6496C17.7125 13.2447 17.7125 12.5887 18.1133 12.1838Z" fill="white" stroke="black" stroke-width="0.836429"/>
</svg>
