<svg width="46" height="46" viewBox="0 0 46 46" fill="none" xmlns="http://www.w3.org/2000/svg">
<path d="M45.4909 23C45.4909 10.578 35.422 0.509131 23 0.509131C10.5794 0.509131 0.509132 10.578 0.509132 23C0.509132 35.4206 10.5794 45.4909 23 45.4909C35.422 45.4909 45.4909 35.4206 45.4909 23ZM43.6341 23C43.6341 34.3787 34.3787 43.6341 23 43.6341C11.6213 43.6341 2.36591 34.3787 2.36591 23C2.36591 11.6228 11.6199 2.32134 23 2.32134C34.3801 2.32134 43.6341 11.6228 43.6341 23Z" fill="white" stroke="#B362CF" stroke-width="1.01826"/>
<path d="M27.8221 12.2478L27.8221 12.2478C27.4611 11.8831 26.8765 11.8823 26.5132 12.2477C26.513 12.2479 26.5129 12.2481 26.5127 12.2483L16.5966 22.3094L16.5958 22.3102C16.2451 22.6645 16.2452 23.2927 16.5964 23.6485L16.5966 23.6487L26.5146 33.709C26.5147 33.7091 26.5148 33.7093 26.515 33.7094C26.8761 34.0738 27.4608 34.0744 27.8239 33.7087C28.1895 33.339 28.1887 32.7392 27.824 32.3717L27.8228 32.3705L18.916 23.3358L18.5637 22.9784L18.916 22.621L27.8213 13.5864L27.8221 13.5856C28.1878 13.2162 28.1878 12.6172 27.8221 12.2478Z" fill="white" stroke="#B361CF" stroke-width="1.01826"/>
</svg>
